<svg width="40" height="40" viewBox="0 0 40 40" fill="none" xmlns="http://www.w3.org/2000/svg">
<path d="M20 3.33331C22.2101 3.33331 24.3297 4.21129 25.8925 5.77409C27.4553 7.33689 28.3333 9.45651 28.3333 11.6666V16.6666C29.6594 16.6666 30.9311 17.1934 31.8688 18.1311C32.8065 19.0688 33.3333 20.3406 33.3333 21.6666V31.6666C33.3333 32.9927 32.8065 34.2645 31.8688 35.2022C30.9311 36.1399 29.6594 36.6666 28.3333 36.6666H11.6666C10.3405 36.6666 9.06877 36.1399 8.13109 35.2022C7.19341 34.2645 6.66663 32.9927 6.66663 31.6666V21.6666C6.66663 20.3406 7.19341 19.0688 8.13109 18.1311C9.06877 17.1934 10.3405 16.6666 11.6666 16.6666V11.6666C11.6666 9.45651 12.5446 7.33689 14.1074 5.77409C15.6702 4.21129 17.7898 3.33331 20 3.33331ZM20 23.3333C19.159 23.333 18.349 23.6507 17.7324 24.2225C17.1157 24.7943 16.738 25.5781 16.675 26.4166L16.6666 26.6666C16.6666 27.3259 16.8621 27.9704 17.2284 28.5185C17.5947 29.0667 18.1153 29.494 18.7243 29.7462C19.3334 29.9985 20.0037 30.0645 20.6503 29.9359C21.2969 29.8073 21.8908 29.4898 22.357 29.0237C22.8232 28.5575 23.1406 27.9636 23.2692 27.3169C23.3979 26.6703 23.3318 26.0001 23.0796 25.391C22.8273 24.7819 22.4 24.2614 21.8519 23.8951C21.3037 23.5288 20.6592 23.3333 20 23.3333ZM20 6.66665C18.6739 6.66665 17.4021 7.19343 16.4644 8.13111C15.5267 9.06879 15 10.3406 15 11.6666V16.6666H25V11.6666C25 10.3406 24.4732 9.06879 23.5355 8.13111C22.5978 7.19343 21.326 6.66665 20 6.66665Z" fill="black"/>
</svg>
