<svg width="435" height="317" viewBox="0 0 435 317" fill="none" xmlns="http://www.w3.org/2000/svg">
<path d="M1.22708 252.649C0.460153 252.649 0.0511286 252.309 0 251.63L0.690231 248.852C0.945874 248.605 1.17595 248.482 1.38046 248.482L3.06772 248.667C3.88578 248.79 4.93391 248.883 6.21213 248.945C7.54147 249.006 9.61217 249.037 12.4242 249.037L23.5447 248.482C23.9026 248.482 24.1582 248.605 24.3116 248.852L24.9252 251.445C24.9252 252.063 24.5162 252.464 23.6981 252.649L22.7778 252.742C20.6815 252.742 19.48 254.47 19.1732 257.928C18.8664 261.323 18.7131 267.127 18.7131 275.338L18.7897 282.746L18.8664 300.249V301.083C18.8664 304.972 19.3266 307.349 20.2469 308.213C20.4514 308.337 20.8605 308.43 21.474 308.491C22.0875 308.553 23.1612 308.584 24.6951 308.584H26.6124C28.5553 308.584 30.1914 308.491 31.5208 308.306C32.2366 308.306 32.6967 308.121 32.9012 307.75C33.1058 307.38 33.4637 306.207 33.9749 304.231C34.4862 302.194 35.0231 301.144 35.5855 301.083L37.0426 301.638C38.1163 302.07 38.7043 302.626 38.8066 303.305V303.676L38.7299 304.139C38.2186 306.176 37.963 307.936 37.963 309.417C37.963 311.331 37.784 313.091 37.4261 314.696C37.375 315.252 37.1449 315.622 36.7359 315.807L34.4351 315.992C32.3388 315.992 29.3222 315.9 25.3853 315.715C21.4996 315.591 19.0198 315.529 17.9461 315.529H11.4272C9.99565 315.529 8.61516 315.56 7.28581 315.622C5.95647 315.622 4.75496 315.715 3.68126 315.9L1.994 316.085C1.58497 316.085 1.30378 315.962 1.15039 315.715L0.613541 313.122L0.460159 312.936C0.460159 312.443 0.894745 312.103 1.76393 311.918L2.76094 311.825C3.98803 311.825 4.95948 311.208 5.67528 309.973C5.98205 309.417 6.23769 308.028 6.4422 305.806C6.69784 303.521 6.82567 295.711 6.82567 282.376L6.90236 274.134V265.799C6.90236 264.565 6.85123 263.268 6.74898 261.91C6.69785 260.552 6.54446 258.761 6.28882 256.539C6.03318 254.254 4.6527 252.989 2.1474 252.742L1.22708 252.649Z" fill="black"/>
<path d="M39.5699 252.649C38.803 252.649 38.3939 252.309 38.3428 251.63L38.9564 248.852L39.7233 248.482L41.4106 248.667C42.2797 248.79 43.4045 248.883 44.785 248.945C46.2166 249.006 48.4663 249.037 51.534 249.037H55.4454C57.7973 249.037 59.3822 248.914 60.2003 248.667L61.8876 248.482C62.3477 248.482 62.6034 248.605 62.6545 248.852L63.268 251.63C63.268 252.309 62.859 252.68 62.0409 252.742L61.1206 252.834C59.8424 252.834 58.871 253.39 58.2063 254.501C57.9506 254.995 57.7206 255.674 57.516 256.539C57.3115 257.403 57.2093 258.452 57.2093 259.687L57.0559 277.653L57.1326 295.804C57.1326 298.582 57.4393 300.99 58.0529 303.027C59.28 307.596 63.0891 309.88 69.4801 309.88C75.1043 309.88 78.8622 307.72 80.754 303.398C81.2653 302.163 81.6743 300.774 81.9811 299.231C82.339 297.625 82.5179 295.742 82.5179 293.581L82.5946 283.395V263.391C82.5946 260.366 82.4668 258.422 82.2112 257.557C81.9044 254.594 80.5495 252.989 78.1464 252.742L77.2261 252.649C76.4592 252.649 76.0501 252.309 75.999 251.63L76.6126 248.852C76.9193 248.605 77.175 248.482 77.3795 248.482L85.4323 248.852L92.8715 248.482C93.2294 248.482 93.485 248.605 93.6384 248.852L94.3286 251.63C94.3286 252.124 93.894 252.464 93.0248 252.649L92.1045 252.742C90.4173 252.927 89.318 253.668 88.8067 254.964C88.2954 256.261 88.0398 258.514 88.0398 261.725V282.191C88.0398 284.599 88.0142 287.037 87.9631 289.507C87.9631 291.976 87.9376 294.508 87.8864 297.101C87.8864 300.373 86.9661 303.892 85.1255 307.658C82.0578 313.77 75.4366 316.826 65.262 316.826C63.4214 316.826 61.7597 316.733 60.277 316.548C58.8454 316.363 57.3627 316.023 55.8288 315.529C48.4152 313.369 44.7083 306.917 44.7083 296.174L45.0918 281.357L45.2452 274.875C45.2452 267.219 45.0662 261.694 44.7083 258.298C44.3504 254.841 42.97 252.989 40.5669 252.742L39.5699 252.649Z" fill="black"/>
<path d="M96.4586 281.45C96.4586 271.634 99.2196 263.453 104.741 256.909C110.314 250.303 117.268 247 125.602 247C126.982 247 128.797 247.123 131.047 247.37C133.348 247.617 136.339 248.08 140.02 248.76C143.701 249.377 145.542 250.21 145.542 251.26L145.389 251.908C145.082 252.896 144.801 254.347 144.545 256.261C144.341 258.175 144.238 260.15 144.238 262.188C144.238 263.484 143.241 264.132 141.247 264.132C140.429 264.132 139.995 263.731 139.944 262.928C139.944 260.521 139.79 258.854 139.483 257.928C139.023 256.693 137.796 255.643 135.802 254.779C133.655 253.976 131.354 253.575 128.9 253.575C122.918 253.575 118.137 256.014 114.558 260.891C111.03 265.707 109.266 272.313 109.266 280.709C109.266 289.105 111.26 296.113 115.248 301.731C119.236 307.349 124.247 310.158 130.28 310.158C132.837 310.158 135.291 309.695 137.643 308.769C139.995 307.843 141.759 306.67 142.935 305.25C143.088 305.065 143.216 304.941 143.318 304.88C143.471 304.818 143.599 304.756 143.701 304.694C144.059 304.694 144.341 304.91 144.545 305.343C144.75 305.713 144.903 306.176 145.005 306.732L144.852 307.658L144.392 309.603L143.855 311.918L143.395 312.288C138.589 315.375 132.964 316.919 126.522 316.919C117.472 316.919 110.187 313.677 104.665 307.195C99.194 300.712 96.4586 292.131 96.4586 281.45Z" fill="black"/>
<path d="M183.224 312.01L175.248 299.138C169.419 289.692 166.275 284.969 165.815 284.969C165.61 285.216 165.508 285.432 165.508 285.617V302.842C165.508 305.744 165.661 307.75 165.968 308.862C166.479 310.529 167.706 311.516 169.649 311.825L170.57 311.918C171.337 311.918 171.746 312.257 171.797 312.936L171.183 315.715C170.876 315.962 170.621 316.085 170.416 316.085L168.729 315.9C167.553 315.715 164.179 315.622 158.606 315.622L153.544 315.807L148.636 316.085C148.227 316.085 147.945 315.962 147.792 315.715L147.178 313.029C147.127 312.412 147.536 312.01 148.405 311.825L149.402 311.733C150.63 311.733 151.652 311.146 152.47 309.973C152.777 309.232 153.007 308.213 153.16 306.917C153.16 305.991 153.237 302.842 153.391 297.471C153.544 292.1 153.621 287.13 153.621 282.561C153.621 268.794 153.467 260.459 153.16 257.557C152.854 254.594 151.448 252.989 148.942 252.742L148.022 252.649C147.255 252.649 146.846 252.309 146.795 251.63L147.485 248.852C147.741 248.605 147.971 248.482 148.175 248.482L149.863 248.667C150.732 248.79 151.831 248.883 153.16 248.945C154.541 249.006 156.714 249.037 159.679 249.037H163.744C164.511 249.037 165.329 249.037 166.198 249.037C167.119 248.976 167.962 248.852 168.729 248.667L170.34 248.482C170.749 248.482 171.03 248.605 171.183 248.852L171.797 251.63C171.797 252.309 171.388 252.68 170.57 252.742L169.573 252.834C167.834 252.834 166.633 253.822 165.968 255.798C165.661 256.724 165.508 258.699 165.508 261.725V279.783L182.227 256.816C183.045 255.335 183.454 254.1 183.454 253.112L183.224 251.908L182.841 251.353L182.764 250.612V249.408C182.764 248.852 183.045 248.543 183.607 248.482L185.141 248.76L189.666 248.945H190.587C191.558 248.945 192.581 248.914 193.654 248.852C194.779 248.79 195.878 248.667 196.952 248.482H197.336C198.154 248.482 198.563 249.037 198.563 250.149C198.563 251.63 198.128 252.495 197.259 252.742L195.495 253.112C194.268 253.359 192.376 254.841 189.82 257.557C187.672 259.965 185.397 262.743 182.994 265.892C180.591 269.041 177.83 272.837 174.711 277.283C180.335 285.556 184.911 292.254 188.439 297.378C192.018 302.441 194.83 306.361 196.875 309.14C197.693 310.251 198.665 311.023 199.79 311.455L201.017 311.733C201.681 311.856 202.014 312.566 202.014 313.862C202.014 315.344 201.554 316.085 200.633 316.085L193.501 315.715L190.51 315.807L186.829 315.992H186.368C185.755 315.992 185.269 315.776 184.911 315.344L183.224 312.01Z" fill="black"/>
<path d="M226.836 277.005L240.181 250.149L240.948 248.667L241.331 248.574H241.638L243.095 248.667L244.783 248.76H245.856C246.317 248.76 246.751 248.698 247.16 248.574H247.62C247.927 248.574 248.08 248.79 248.08 249.223V250.334L248.004 251.538C247.748 251.97 247.518 252.248 247.313 252.371C246.393 252.989 245.141 254.779 243.556 257.742L237.88 268.207C234.557 274.381 232.41 278.795 231.438 281.45C230.467 284.105 229.981 286.852 229.981 289.692L229.904 302.842C229.904 306.3 230.134 308.615 230.594 309.788C231.106 310.899 232.231 311.547 233.969 311.733L234.889 311.825C235.656 311.825 236.065 312.165 236.116 312.844L235.503 315.715C235.196 315.962 234.94 316.085 234.736 316.085L233.049 315.9C231.975 315.715 228.958 315.622 223.999 315.622C218.937 315.622 215.793 315.715 214.566 315.9L212.878 316.085C212.674 316.085 212.52 316.054 212.418 315.992C212.316 315.931 212.239 315.838 212.188 315.715L211.498 312.936C211.498 312.319 211.881 311.949 212.648 311.825L213.645 311.733C215.588 311.733 216.841 310.683 217.403 308.584C217.557 307.905 217.659 307.226 217.71 306.547C217.761 305.806 217.787 304.571 217.787 302.842V291.174L217.71 288.303C217.454 286.698 216.764 284.568 215.639 281.913C214.515 279.258 212.853 275.955 210.654 272.004C208.2 267.435 205.49 263.052 202.525 258.854C201.605 257.557 200.838 256.724 200.224 256.353C199.662 255.983 198.665 255.705 197.233 255.52C196.211 255.52 195.699 254.532 195.699 252.556C195.699 251.63 196.057 251.136 196.773 251.075C199.994 250.704 202.193 250.334 203.368 249.963L210.194 247.926L210.884 247.833L211.191 247.926C211.549 247.926 211.984 248.327 212.495 249.13L215.563 254.686L222.082 266.725L226.836 277.005Z" fill="black"/>
<path d="M246.135 252.649C245.368 252.649 244.959 252.309 244.908 251.63L245.598 248.852C245.905 248.605 246.135 248.482 246.288 248.482L247.976 248.667C248.896 248.79 249.791 248.883 250.66 248.945C251.529 249.006 252.909 249.037 254.801 249.037C256.488 249.037 258.815 248.976 261.78 248.852C264.746 248.667 266.561 248.574 267.225 248.574L277.502 247.833L279.65 247.741C287.268 247.741 293.173 250.426 297.366 255.798C301.558 261.169 303.655 268.886 303.655 278.95C303.655 289.507 300.791 298.335 295.065 305.435C289.339 312.535 281.823 316.085 272.517 316.085C271.546 316.085 269.935 316.054 267.686 315.992C265.436 315.931 264.286 315.9 264.234 315.9L257.409 315.622C255.722 315.622 254.111 315.622 252.577 315.622C251.043 315.622 249.612 315.715 248.282 315.9L246.672 316.085C246.212 316.085 245.956 315.962 245.905 315.715L245.215 313.122C245.215 312.504 245.649 312.103 246.518 311.918L247.362 311.825C248.947 311.64 249.944 311.023 250.353 309.973C250.711 309.479 250.992 308.028 251.197 305.62C251.401 303.151 251.503 295.31 251.503 282.098V263.391C251.503 260.428 251.376 258.452 251.12 257.465C250.864 254.563 249.509 252.989 247.055 252.742L246.135 252.649ZM263.928 258.946L263.621 265.892V298.582C263.621 305.065 263.979 308.707 264.695 309.51C265.206 310.004 266.433 310.251 268.376 310.251C272.108 310.251 275.943 309.201 279.88 307.102C282.538 305.744 284.788 303.336 286.629 299.879C289.39 294.569 290.77 288.179 290.77 280.709C290.77 263.299 284.149 254.594 270.907 254.594C270.395 254.594 269.501 254.686 268.223 254.872C266.944 255.057 265.871 255.149 265.001 255.149C264.797 255.149 264.592 255.273 264.388 255.52C264.234 255.705 264.081 256.847 263.928 258.946Z" fill="black"/>
<path d="M309.461 282.469C309.461 271.479 312.324 262.867 318.051 256.631C323.828 250.334 331.804 247.185 341.979 247.185C351.284 247.185 358.57 250.149 363.836 256.076C369.103 261.941 371.736 270.183 371.736 280.802C371.736 287.716 370.355 294.137 367.594 300.064C362.379 311.177 352.614 316.733 338.298 316.733C329.555 316.733 322.55 313.646 317.284 307.473C312.069 301.237 309.461 292.902 309.461 282.469ZM322.115 279.505L322.192 281.728C322.192 286.049 322.678 290.032 323.649 293.674C324.672 297.255 326.078 300.465 327.867 303.305C331.293 308.553 335.767 311.177 341.289 311.177C346.657 311.177 350.875 308.738 353.943 303.861C357.062 298.922 358.621 292.162 358.621 283.58C358.621 274.134 356.985 266.633 353.713 261.076C350.492 255.458 346.044 252.649 340.368 252.649C334.795 252.649 330.347 255.088 327.024 259.965C323.752 264.781 322.115 271.294 322.115 279.505Z" fill="black"/>
<path d="M422.636 288.488L432.837 287.747C433.757 287.747 434.217 288.334 434.217 289.507V290.248L434.14 291.266C434.14 291.822 433.859 292.223 433.297 292.47L432.223 292.841C431.303 293.149 430.766 294.137 430.612 295.804L430.306 304.602C430.306 305.898 430.357 306.67 430.459 306.917L430.612 310.436C430.612 310.992 430.357 311.455 429.846 311.825C426.931 313.492 423.685 314.758 420.106 315.622C416.527 316.486 412.539 316.919 408.141 316.919C398.989 316.919 391.601 313.77 385.977 307.473C380.353 301.114 377.541 292.748 377.541 282.376C377.541 274.165 379.279 267.219 382.756 261.539C385.313 257.218 389.045 253.76 393.953 251.167C398.862 248.574 404.077 247.278 409.599 247.278C415.376 247.278 420.361 247.772 424.554 248.76C428.797 249.686 430.919 250.828 430.919 252.186C430.919 253.483 430.74 255.273 430.382 257.557C430.076 259.842 429.922 261.601 429.922 262.836C429.922 263.762 429.667 264.318 429.155 264.503L427.852 264.595L426.854 264.688C426.394 264.688 426.088 264.626 425.934 264.503C425.781 264.132 425.704 263.824 425.704 263.577V262.558C425.704 259.78 425.116 257.773 423.94 256.539C422.048 254.563 418.316 253.575 412.743 253.575C405.994 253.575 400.651 256.076 396.714 261.076C392.828 266.015 390.886 272.776 390.886 281.357C390.886 289.445 392.828 296.298 396.714 301.916C400.651 307.534 405.432 310.343 411.056 310.343C413.203 310.343 415.274 309.973 417.268 309.232C417.728 309.047 418.06 308.8 418.265 308.491C418.469 308.121 418.572 307.102 418.572 305.435V299.323C418.572 296.73 418.367 295.125 417.958 294.508C417.549 293.89 416.424 293.458 414.584 293.211L412.743 293.026C411.925 293.026 411.516 292.038 411.516 290.062C411.516 288.519 412.027 287.747 413.05 287.747L422.636 288.488Z" fill="black"/>
<path fill-rule="evenodd" clip-rule="evenodd" d="M204.51 139.897C204.51 135.986 206.373 134.15 211.563 132.949C213 132.617 215.936 132.422 218.168 132.511C225.438 132.799 228.727 135.237 228.368 140.072C228.152 142.986 226.785 145.031 224.103 146.454C222.403 147.355 221.428 147.493 216.736 147.492C211.983 147.491 211.054 147.357 209.068 146.379C206.167 144.95 204.51 142.594 204.51 139.897Z" fill="black"/>
<path d="M233.025 120.7L235.343 123.054C239.48 127.254 242.061 127.828 244.762 125.148C248.238 122.366 245.345 118.045 243.464 116.233C239.767 112.404 235.844 113.457 234.344 114.462C231.314 116.531 232.202 119.483 233.025 120.7Z" fill="black"/>
<path d="M202.847 120.7L200.529 123.054C196.392 127.254 193.811 127.828 191.109 125.148C187.633 122.366 190.526 118.045 192.407 116.233C196.104 112.404 200.028 113.457 201.528 114.463C204.558 116.532 203.67 119.483 202.847 120.7Z" fill="black"/>
<path fill-rule="evenodd" clip-rule="evenodd" d="M119.221 73.5513C134.918 57.2528 156.124 50.067 175.784 52.0117C184.665 52.8875 192.63 55.6534 195.155 57.1949C213.719 49.6666 237.638 55.0639 247.276 58.7035C248.866 57.8009 253.949 55.7414 261.565 54.7244C261.608 54.7589 263.019 54.5868 264.701 54.341C272.995 53.129 283.934 55.4274 293.511 60.3946C302.466 65.0389 314.389 75.6948 321.057 85.012C328.638 95.6031 332.256 107.405 331.018 117.501C328.834 135.32 316.702 146.462 299.549 146.402C291.735 146.375 285.039 144.204 278.575 139.603L276.225 137.93L275.674 142.87C274.658 151.956 272.884 158.102 269.152 165.452C260.431 182.632 244.774 192.331 223.554 193.7C211.42 194.483 194.559 191.128 183.815 185.793C171.032 179.444 163.624 171.281 159.987 159.531C158.786 155.652 158.714 154.891 158.689 145.86C158.661 135.882 159.37 130.641 161.693 123.66C162.154 122.272 162.444 121.136 162.339 121.136C162.232 121.136 160.621 122.157 158.757 123.404C149.706 129.463 139.641 132.808 130.512 132.791C114.1 132.762 103.205 120.871 104.02 103.876C104.522 93.3975 109.315 83.8378 119.221 73.5513ZM187.968 66.533C188.307 66.6663 188.73 66.7931 189.189 66.9043C191.091 67.3653 193.059 67.0198 194.972 66.6053C223.985 59.618 237.849 66.0798 242.298 68.5721C243.762 72.0483 247.481 72.7928 250.812 70.2766C253.347 68.3621 257.716 66.2961 261.174 65.3771C265.334 64.2715 273.792 64.3746 278.573 65.5893C283.493 66.8395 290.896 70.4917 295.807 74.0911C300.747 77.7124 307.78 84.7204 311.655 89.8816C315.191 94.5917 318.941 101.988 319.933 106.209C320.846 110.093 320.858 116.918 319.958 120.346C317.855 128.356 312.155 134.049 304.635 135.649C301.15 136.39 294.668 135.946 291.269 134.734C282.668 131.665 275.569 123.867 272.125 113.704C268.747 103.74 261.382 90.1489 258.58 88.7117C256.302 87.5431 254.458 87.8207 252.662 89.6017C250.247 91.9976 250.42 93.9111 253.496 98.8246C258.755 107.225 262.833 117.132 264.547 125.675C265.801 131.923 265.665 142.881 264.262 148.659C261.484 160.102 255.601 169.657 248.04 175.009C239.072 181.358 227.161 184.27 214.622 183.179C193.601 181.351 177.874 173.36 172.076 161.561C169.375 156.064 168.583 151.493 168.912 143.318C169.391 131.418 173.9 117.197 180.732 106.036C182.639 102.92 182.834 101.076 181.49 98.89C180.495 97.2703 178.207 96.3574 176.129 96.7516C175.456 96.8794 170.942 100.334 166.079 104.445C152.325 116.069 145.318 120.188 136.432 121.875C128.698 123.343 123.187 122.159 119.161 118.166C115.848 114.879 114.602 111.607 114.52 105.975C114.486 103.666 114.624 101.188 114.826 100.468L115.195 99.1591C117.699 92.6797 121.223 87.2425 122.672 85.3339C125.373 82.0083 128.272 78.9948 131.11 76.562C135.739 72.7538 147.366 65.738 158.804 62.8782C167.491 60.6092 181.256 63.8979 187.968 66.533ZM233.025 120.7L235.343 123.054C239.48 127.254 242.061 127.828 244.762 125.148C248.238 122.366 245.345 118.045 243.464 116.233C239.767 112.404 235.844 113.457 234.344 114.462C231.314 116.531 232.202 119.483 233.025 120.7ZM211.563 132.949C206.373 134.15 204.51 135.986 204.51 139.897C204.51 142.594 206.167 144.95 209.068 146.379C211.054 147.357 211.983 147.491 216.736 147.492C221.428 147.493 222.403 147.355 224.103 146.454C226.785 145.031 228.152 142.986 228.368 140.072C228.727 135.237 225.438 132.799 218.168 132.511C215.936 132.422 213 132.617 211.563 132.949ZM202.847 120.7L200.529 123.054C196.392 127.254 193.811 127.828 191.109 125.148C187.633 122.366 190.526 118.045 192.407 116.233C196.104 112.404 200.028 113.457 201.528 114.463C204.558 116.532 203.67 119.483 202.847 120.7Z" fill="black"/>
<path d="M177.269 33.3873C177.919 34.1067 179.027 34.8498 180.226 35.5549C182.31 36.7799 184.094 38.4326 185.533 40.3663C187.818 43.4385 190.673 46.5085 191.546 44.959C193.35 41.6278 189.582 36.211 187.427 34.3335C186.848 33.7781 185.72 32.8862 184.258 32.0613C181.357 30.424 175.042 30.9211 177.269 33.3873Z" fill="black"/>
<path d="M144.867 19.8905L151.162 13.0882C151.474 12.7501 151.539 12.2536 151.324 11.8475L147.585 4.79353C146.077 1.94947 149.188 -1.11448 152.044 0.401603L161.882 5.62379C162.276 5.83292 162.758 5.78373 163.101 5.49947L167.785 1.6159C170.002 -0.222121 173.359 1.46821 173.172 4.32838L172.678 11.9015C172.652 12.2873 172.836 12.6574 173.159 12.8733L178.966 16.7512C181.634 18.5327 180.402 22.6624 177.186 22.7155L169.731 22.8388C169.156 22.8483 168.686 23.2968 168.655 23.8662L168.214 31.8875C168.05 34.8784 164.248 36.0849 162.364 33.744L155.527 25.2479C155.302 24.9681 154.952 24.8163 154.592 24.842L147.525 25.3469C144.558 25.5588 142.856 22.0641 144.867 19.8905Z" fill="black"/>
</svg>
