<svg width="125" height="118" viewBox="0 0 125 118" fill="none" xmlns="http://www.w3.org/2000/svg">
<path d="M85.95 86.2397C87.6282 88.098 90.49 90.0174 93.5886 91.8386C98.9723 95.0029 103.58 99.2717 107.295 104.267C113.198 112.202 120.573 120.132 122.827 116.13C127.487 107.525 117.755 93.5335 112.189 88.6839C110.693 87.2491 107.779 84.9454 104.003 82.8146C96.5095 78.5856 80.197 79.8694 85.95 86.2397Z" fill="black"/>
<path d="M2.25677 51.3774L18.5147 33.8069C19.3227 32.9337 19.4907 31.6512 18.9346 30.6022L9.2758 12.3817C5.38149 5.03551 13.4172 -2.87871 20.7943 1.03734L46.205 14.5263C47.2227 15.0665 48.4691 14.9394 49.3547 14.2052L61.454 4.1739C67.1804 -0.57374 75.8517 3.7924 75.3689 11.1803L74.0905 30.7416C74.0254 31.7382 74.499 32.6941 75.3342 33.2518L90.335 43.2687C97.2259 47.8701 94.0417 58.5372 85.7361 58.6745L66.4789 58.9928C64.9944 59.0173 63.7814 60.1759 63.7006 61.6466L62.5619 82.3656C62.1373 90.0912 52.3173 93.2076 47.4514 87.1611L29.791 65.2156C29.2094 64.4929 28.3062 64.1007 27.3764 64.1671L9.12031 65.4713C1.45761 66.0187 -2.93832 56.9919 2.25677 51.3774Z" fill="black"/>
</svg>
