<svg width="40" height="40" viewBox="0 0 40 40" fill="none" xmlns="http://www.w3.org/2000/svg">
<g clip-path="url(#clip0_12_34)">
<path fill-rule="evenodd" clip-rule="evenodd" d="M23.2832 11.271C22.8917 11.3421 21.6744 11.6365 21.5029 11.7015L21.3268 11.7683V20.1847V28.6011L28.7022 28.5791L36.0775 28.557L36.5294 28.3847C38.1877 27.7522 39.3137 26.6034 39.7818 25.066C40.8259 21.637 37.9687 18.1665 34.4933 18.6422C34.1165 18.6938 33.7163 18.7569 33.604 18.7824C33.4088 18.8269 33.3974 18.8112 33.3459 18.4229C33.2619 17.7896 32.9263 16.808 32.5308 16.0384C31.518 14.0684 29.8478 12.5869 27.7463 11.7944C26.6789 11.3919 26.1301 11.2941 24.77 11.264C24.0598 11.2483 23.3908 11.2514 23.2832 11.271ZM18.9002 12.183C18.758 12.2799 18.5679 12.4584 18.4778 12.58C18.3144 12.8006 18.3141 12.8144 18.3141 20.2487C18.3141 27.335 18.3211 27.708 18.4576 27.9314C18.6798 28.2947 18.9653 28.4655 19.4042 28.4978C19.8725 28.5323 20.2221 28.3526 20.4665 27.9516C20.6187 27.7019 20.622 27.5425 20.6223 20.2546L20.6226 12.8126L20.4449 12.5467C20.0946 12.0222 19.3827 11.8546 18.9002 12.183ZM12.9108 13.2083C12.5221 13.3845 12.2673 13.7523 12.212 14.2168C12.185 14.4432 12.1736 17.5687 12.1867 21.1625L12.2104 27.6966L12.3877 27.9818C12.8372 28.7046 13.9137 28.6882 14.3627 27.9516C14.5148 27.7023 14.5183 27.5439 14.5185 20.8665C14.5188 15.2195 14.5001 13.9915 14.4103 13.7768C14.1914 13.2526 13.4406 12.968 12.9108 13.2083ZM16.0317 13.9708C15.721 14.0608 15.4087 14.4254 15.3016 14.8231C15.2467 15.0272 15.2266 17.2053 15.2409 21.4124L15.2623 27.6966L15.4396 27.9818C15.8891 28.7046 16.9656 28.6882 17.4146 27.9516C17.5665 27.7026 17.5702 27.5446 17.5704 21.2395C17.5707 13.9225 17.613 14.4052 16.9419 14.0611C16.5747 13.8728 16.4226 13.8577 16.0317 13.9708ZM9.94106 14.9442C9.53962 15.0816 9.21613 15.4655 9.15736 15.8741C9.13216 16.0498 9.12207 18.7817 9.13506 21.945C9.15791 27.5338 9.16299 27.7041 9.31504 27.9617C9.75051 28.6992 10.8585 28.6936 11.3109 27.9516C11.4625 27.703 11.4664 27.5457 11.4667 21.7209C11.467 15.8003 11.4655 15.7426 11.3031 15.4536C11.0242 14.9575 10.4882 14.757 9.94106 14.9442ZM3.57848 19.2863C3.42902 19.3775 3.25608 19.5841 3.16937 19.7752C3.02805 20.0864 3.01905 20.327 3.01741 23.8261C3.01569 27.5316 3.01639 27.5474 3.19175 27.8894C3.62097 28.7265 4.80588 28.7272 5.22617 27.8907C5.35083 27.6426 5.36304 27.2803 5.36304 23.8231C5.36304 20.3659 5.35083 20.0036 5.22617 19.7555C4.93038 19.1667 4.14268 18.9424 3.57848 19.2863ZM6.63034 19.2863C6.48088 19.3775 6.30794 19.5841 6.22123 19.7752C6.07991 20.0864 6.07091 20.327 6.06927 23.8261C6.06755 27.5316 6.06825 27.5474 6.24361 27.8894C6.67283 28.7265 7.85774 28.7272 8.27803 27.8907C8.40269 27.6426 8.4149 27.2803 8.4149 23.8231C8.4149 20.3659 8.40269 20.0036 8.27803 19.7555C7.98224 19.1667 7.19454 18.9424 6.63034 19.2863ZM0.924379 20.8537C0.597361 20.923 0.313694 21.1118 0.14099 21.3752C0.0162554 21.5654 0.000839584 21.8731 -0.0191931 24.5629C-0.0411822 27.5291 -0.0406344 27.5414 0.137313 27.8922C0.561834 28.7291 1.75355 28.7282 2.17431 27.8907C2.29725 27.646 2.31118 27.3223 2.31125 24.7009C2.31141 21.5619 2.30061 21.4677 1.89871 21.0972C1.66121 20.8784 1.26971 20.7805 0.924379 20.8537Z" fill="black"/>
</g>
<defs>
<clipPath id="clip0_12_34">
<rect width="40" height="40" fill="white"/>
</clipPath>
</defs>
</svg>
